<?xml version="1.0" encoding="utf-8"?>
<!-- Generator: Adobe Illustrator 23.0.4, SVG Export Plug-In . SVG Version: 6.00 Build 0)  -->
<svg version="1.1" id="Layer_1" xmlns="http://www.w3.org/2000/svg" xmlns:xlink="http://www.w3.org/1999/xlink" x="0px" y="0px"
	 viewBox="0 0 595.3 595.3" style="enable-background:new 0 0 595.3 595.3;" xml:space="preserve">
<style type="text/css">
	.st0{fill-rule:evenodd;clip-rule:evenodd;fill:#163856;}
</style>
<g>
	<rect x="186.8" y="213.6" class="st0" width="57.2" height="71.7"/>
	<path class="st0" d="M297.6,77.7c-10.7,0-21.2,0.8-31.5,2.3v55.7h134.2c10.9,6.4,21.2,13.9,30.6,22.1H266.1v33.7h195.1
		c5,7.1,9.5,14.4,13.4,22.1h-21.3c-22.5,1.5-40.2,17.1-40.2,35.9c0,18.7,17.6,34.2,40,35.9h27.1c1,7.6,1.5,15.3,1.5,23.1
		c0,34.5-10,66.8-27.2,94.3h17.2c-4.7,7.7-9.9,15.1-15.5,22.1H438c-21.4,24.8-49.6,43.8-81.6,54.2l-9.6-20
		c22.7-7,43.3-18.8,60.5-34.2H186.8v2.6c12.8,10,27.1,18.3,42.5,24.6l-9.5,19.8c-11.6-4.8-22.6-10.7-33-17.4v21.7
		c-7.7-4.8-15.1-10.1-22.1-15.9v-22.7c-4.6-4.1-9.1-8.3-13.3-12.8h-21c-5.4-7-10.3-14.4-14.8-22.1h17.8
		c-21-30.1-33.2-66.3-33.2-105.1c0-68.4,38-128.5,94.8-161.9h49V84.3C148.7,108.4,77.7,195,77.7,297.6
		c0,121.1,98.8,219.9,219.9,219.9s219.9-98.8,219.9-219.9S418.7,77.7,297.6,77.7z"/>
	<path class="st0" d="M459.6,308.5c0-0.3,0-0.7,0-1H266.1v95.3h161.6C447.7,376.5,459.6,343.8,459.6,308.5z"/>
	<rect x="186.8" y="307.5" class="st0" width="57.2" height="95.3"/>
	<path class="st0" d="M391,249.4c0-13.5,5.3-26,14.2-35.9H266.1v0.1v71.7h139.1C396.3,275.4,391,263,391,249.4z"/>
	<path class="st0" d="M244,157.8h-43.1c-14.7,9.4-27.9,20.7-39,33.7H244V157.8z"/>
	<path class="st0" d="M595.1,276.8c-1.2-16.7-11.3-27.5-23-35.4c7-10.5,13.1-23.8,7.4-40.9c-5.5-16.5-17.7-23.5-31.4-28.2
		c6.2-9.8,7.4-25.5-3.4-41.5c-10.6-15.7-26.9-19.1-38-19.1c1.4-11.9-0.2-27.6-13.6-39.2c-12.7-11-27.7-11.3-41.6-8.6
		c-2.5-12.4-7.3-26.3-23.3-34.3c-15.5-7.8-29.2-4-42.2,2.4c-2.6-11.3-12.7-23.4-31.7-27.1c-18.6-3.6-32.7,5.2-40.5,13.1
		c-7.4-9.4-19.5-19.1-37.2-17.8c-17.8,1.2-28.4,12.5-34.4,22.8c-8.8-6.7-23.9-13.5-41.9-7.3c-18.2,6.3-26.6,19.6-27.6,31.2
		c-13.7-4.5-27.8-6.3-42.1,3.6c-14.8,10.2-17.6,24.6-18.3,37.2c-14.1-0.7-28.9,1.7-40,14.3c-11.7,13.4-11.1,29.2-8,40.8
		c-11,1.5-26.6,7.1-34.9,24.2c-8.5,17.3-5,32.7,2.4,41.5c-12.9,6.5-24,15.2-27.1,32.3c-3.2,17.7,4.7,30,13.1,39.4
		c-10.4,9.4-18.9,21.5-17.7,38.2c1.2,16.7,11.3,27.5,23,35.4c-7,10.5-13.1,23.8-7.5,40.9c5.5,16.5,17.7,23.5,31.4,28.2
		c-6.2,9.8-7.4,25.5,3.4,41.5c10.6,15.7,26.9,19.1,38,19.1c-1.4,11.9,0.2,27.6,13.6,39.2c12.7,11,27.7,11.3,41.6,8.6
		c2.5,12.4,7.3,26.3,23.3,34.3c15.5,7.8,29.2,4,42.2-2.3c2.6,11.3,12.7,23.4,31.7,27.1c18.6,3.6,32.7-5.2,40.5-13.1
		c7.4,9.4,19.5,19.1,37.2,17.8c17.8-1.2,28.4-12.5,34.4-22.8c8.8,6.7,23.9,13.5,41.9,7.3c18.2-6.3,26.6-19.6,27.6-31.2
		c13.7,4.5,27.8,6.3,42.1-3.5c14.8-10.2,17.6-24.6,18.3-37.3c14.1,0.7,28.9-1.7,40-14.3c11.7-13.4,11.1-29.1,8-40.8
		c11-1.5,26.6-7.1,34.9-24.2c8.5-17.3,5.1-32.7-2.4-41.5c12.9-6.5,24-15.2,27.1-32.3c3.2-17.7-4.7-30-13.1-39.4
		C587.8,305.6,596.3,293.5,595.1,276.8z M297.6,531.3C168.9,531.3,64,426.3,64,297.6S168.9,64,297.6,64s233.7,105,233.7,233.6
		C531.3,426.3,426.3,531.3,297.6,531.3z"/>
	<path class="st0" d="M122,297.6c0.1,39.8,14.7,76.4,39,105.2h3.6V213.6h-18.9C130.6,238.3,122,267,122,297.6z"/>
</g>
</svg>
